<svg width="18" height="18" viewBox="0 0 18 18" fill="none" xmlns="http://www.w3.org/2000/svg">
<path d="M15.1875 1.40625H14.2734V0.703125C14.2734 0.314789 13.9586 0 13.5703 0C13.182 0 12.8672 0.314789 12.8672 0.703125V1.40625H9.66797V0.703125C9.66797 0.314789 9.35318 0 8.96484 0C8.57651 0 8.26172 0.314789 8.26172 0.703125V1.40625H5.09766V0.703125C5.09766 0.314789 4.78287 0 4.39453 0C4.0062 0 3.69141 0.314789 3.69141 0.703125V1.40625H2.8125C1.26169 1.40625 0 2.66794 0 4.21875V15.1875C0 16.7383 1.26169 18 2.8125 18H8.19141C8.57974 18 8.89453 17.6852 8.89453 17.2969C8.89453 16.9085 8.57974 16.5938 8.19141 16.5938H2.8125C2.03709 16.5938 1.40625 15.9629 1.40625 15.1875V4.21875C1.40625 3.44334 2.03709 2.8125 2.8125 2.8125H3.69141V3.51562C3.69141 3.90396 4.0062 4.21875 4.39453 4.21875C4.78287 4.21875 5.09766 3.90396 5.09766 3.51562V2.8125H8.26172V3.51562C8.26172 3.90396 8.57651 4.21875 8.96484 4.21875C9.35318 4.21875 9.66797 3.90396 9.66797 3.51562V2.8125H12.8672V3.51562C12.8672 3.90396 13.182 4.21875 13.5703 4.21875C13.9586 4.21875 14.2734 3.90396 14.2734 3.51562V2.8125H15.1875C15.9629 2.8125 16.5938 3.44334 16.5938 4.21875V8.22656C16.5938 8.6149 16.9085 8.92969 17.2969 8.92969C17.6852 8.92969 18 8.6149 18 8.22656V4.21875C18 2.66794 16.7383 1.40625 15.1875 1.40625Z" fill="#F9D349"/>
<path d="M13.7461 9.49219C11.4005 9.49219 9.49219 11.4005 9.49219 13.7461C9.49219 16.0917 11.4005 18 13.7461 18C16.0917 18 18 16.0917 18 13.7461C18 11.4005 16.0917 9.49219 13.7461 9.49219ZM13.7461 16.5938C12.1759 16.5938 10.8984 15.3163 10.8984 13.7461C10.8984 12.1759 12.1759 10.8984 13.7461 10.8984C15.3163 10.8984 16.5938 12.1759 16.5938 13.7461C16.5938 15.3163 15.3163 16.5938 13.7461 16.5938Z" fill="#F9D349"/>
<path d="M14.7656 13.043H14.4492V12.3047C14.4492 11.9164 14.1344 11.6016 13.7461 11.6016C13.3578 11.6016 13.043 11.9164 13.043 12.3047V13.7461C13.043 14.1344 13.3578 14.4492 13.7461 14.4492H14.7656C15.154 14.4492 15.4688 14.1344 15.4688 13.7461C15.4688 13.3578 15.154 13.043 14.7656 13.043Z" fill="#F9D349"/>
</svg>
