<svg fill="none" xmlns="http://www.w3.org/2000/svg" viewBox="0 0 14 14">
  <path d="M7 4.3a3.42 3.42 0 100 6.84 3.42 3.42 0 000-6.85zm0 5.74a2.33 2.33 0 110-4.66 2.33 2.33 0 010 4.66z" fill="#121212"/>
  <path d="M12.36 2.65h-2.01a.17.17 0 01-.15-.09L9.64 1.4C9.42.94 8.99.68 8.5.68H5.53a1.26 1.26 0 00-1.13.7l-.56 1.17a.17.17 0 01-.15.1H1.64C.74 2.65 0 3.38 0 4.28v7.39c0 .9.74 1.64 1.64 1.64h10.72c.9 0 1.64-.74 1.64-1.64V4.29c0-.9-.74-1.64-1.64-1.64zm.55 9.03c0 .3-.25.54-.55.54H1.64a.55.55 0 01-.55-.54V4.29c0-.3.25-.54.55-.54H3.7c.48 0 .92-.27 1.13-.7v-.01l.56-1.17c.03-.06.09-.1.15-.1h2.98c.06 0 .12.04.15.1l.55 1.17c.22.44.66.7 1.14.7h2c.31 0 .56.25.56.55v7.39z" fill="#121212"/>
</svg>
