<svg width="18" height="18" viewBox="0 0 18 18" fill="none" xmlns="http://www.w3.org/2000/svg">
<path d="M9 0C4.03738 0 0 4.03738 0 9C0 13.9626 4.03738 18 9 18C13.9626 18 18 13.9626 18 9C18 4.03738 13.9626 0 9 0ZM9 16.4789C4.87614 16.4789 1.52114 13.1239 1.52114 9C1.52114 4.87614 4.87614 1.52114 9 1.52114C13.1239 1.52114 16.4789 4.87614 16.4789 9C16.4789 13.1239 13.1239 16.4789 9 16.4789Z" fill="#F9D349"/>
<path d="M13.0821 8.72064H9.53286V3.41584C9.53286 2.9958 9.19234 2.65527 8.77229 2.65527C8.35224 2.65527 8.01172 2.9958 8.01172 3.41584V9.48118C8.01172 9.90122 8.35224 10.2417 8.77229 10.2417C8.78087 10.2417 8.78916 10.2407 8.79764 10.2405C8.80611 10.2408 8.81441 10.2417 8.82298 10.2417H13.0821C13.5022 10.2417 13.8427 9.90122 13.8427 9.48118C13.8427 9.06113 13.5022 8.72064 13.0821 8.72064Z" fill="#F9D349"/>
</svg>
