<svg width="18" height="16" viewBox="0 0 18 16" fill="none" xmlns="http://www.w3.org/2000/svg">
<path d="M8.55936 3.09488L9 3.91657L9.44064 3.09488C9.55712 2.87768 9.69503 2.64842 9.85606 2.42112C10.4816 1.5383 11.5502 0.549072 13.2188 0.549072C14.4244 0.549072 15.5192 1.04266 16.3116 1.94178C17.0717 2.80437 17.5 3.97113 17.5 5.23515C17.5 6.58346 16.9801 7.86658 15.777 9.29735L15.777 9.29736C14.6876 10.5931 13.1101 11.9393 11.2299 13.5415L11.2299 13.5415L11.2225 13.5478C10.5284 14.1393 9.80808 14.7532 9.04113 15.4242L9.04084 15.4245L9.01805 15.4444C9.01502 15.4471 9.01227 15.4486 9.00965 15.4496C9.00682 15.4506 9.00354 15.4512 9 15.4512C8.99642 15.4512 8.99312 15.4506 8.99032 15.4496C8.98773 15.4486 8.98501 15.4471 8.98202 15.4445L8.95916 15.4245L8.95887 15.4242C8.18963 14.7512 7.4673 14.1356 6.77137 13.5426L6.7702 13.5416L6.77019 13.5416C4.88987 11.9393 3.3124 10.5931 2.22295 9.29735L2.22295 9.29735C1.01993 7.86661 0.5 6.58347 0.5 5.23515C0.5 3.97112 0.928249 2.80439 1.68837 1.94184C2.48082 1.0427 3.57558 0.549072 4.78125 0.549072C6.44987 0.549072 7.51844 1.53832 8.14396 2.42115L8.14397 2.42116C8.305 2.64841 8.44286 2.87764 8.55936 3.09488Z" stroke="#F9D349"/>
</svg>
