<svg fill="none" xmlns="http://www.w3.org/2000/svg" viewBox="0 0 14 18">
  <path d="M12.46 2.77h-1.92c-.26-.29-.59-.5-.96-.61a.95.95 0 01-.66-.66 2.08 2.08 0 00-4 0 .95.95 0 01-.65.66c-.38.1-.7.32-.96.6H1.38C.62 2.77 0 3.4 0 4.17v12.46C0 17.38.62 18 1.38 18h11.08c.77 0 1.39-.62 1.39-1.38V4.15c0-.76-.62-1.38-1.39-1.38zM6.93 1.38a.7.7 0 110 1.39.7.7 0 010-1.39zm5.53 15.24H1.38V4.15H12.47v12.47z" fill="#F9D349"/>
  <path d="M9.56 8.16L5.7 12.01 4.1 10.44l-.98.98 2.59 2.55 4.83-4.83-.98-.98z" fill="#F9D349"/>
</svg>
