<svg width="17" height="18" viewBox="0 0 17 18" fill="none" xmlns="http://www.w3.org/2000/svg">
<path d="M14.1603 6.03547H10.2919C10.6593 5.21963 11.129 3.93951 11.3466 2.36597C11.5199 1.11393 10.531 0 9.2474 0C8.21934 0 7.34129 0.725068 7.15961 1.72408C6.76422 3.89783 5.36118 6.12003 4.85282 6.87151H4.64187V6.855C4.64187 6.4998 4.34849 6.21183 3.98661 6.21183H0.655262C0.293382 6.21183 0 6.4998 0 6.855V17.3568C0 17.712 0.293382 18 0.655262 18H3.98661C4.34849 18 4.64187 17.712 4.64187 17.3568V16.7992H13.624C15.0869 16.7992 16.3013 15.722 16.4489 14.2934L16.9853 9.10387C17.1546 7.46554 15.8431 6.03547 14.1603 6.03547ZM1.31057 16.7137V7.49822H3.33139C3.32973 18.4063 3.33139 16.0533 3.33139 16.7137H1.31057ZM15.6814 8.97408L15.1451 14.1637C15.0657 14.9328 14.4117 15.5129 13.6241 15.5129H4.64187V8.1579H5.19841C5.40871 8.1579 5.60624 8.0588 5.72943 7.89154C5.81833 7.77083 7.91298 4.90113 8.44969 1.95018C8.51967 1.56556 8.85508 1.28643 9.24736 1.28643C9.73811 1.28643 10.1147 1.71109 10.048 2.19304C9.70989 4.63791 8.67977 6.32756 8.66999 6.34342C8.40474 6.76955 8.71546 7.3219 9.22914 7.3219H14.1602C15.0596 7.32182 15.7736 8.08196 15.6814 8.97408Z" fill="#F9D349"/>
</svg>
