<svg width="37" height="10" viewBox="0 0 37 10" fill="none" xmlns="http://www.w3.org/2000/svg">
<path d="M6.39924 0.599999V6.864L1.35923 0.599999H0.375234V9H1.57523V2.736L6.61523 9H7.59923V0.599999H6.39924ZM15.6935 5.856C15.6935 3.9 14.3855 2.58 12.5495 2.58C10.7135 2.58 9.35752 3.936 9.35752 5.82C9.35752 7.716 10.7255 9.072 12.7775 9.072C13.8335 9.072 14.7095 8.712 15.2855 8.04L14.6495 7.296C14.1815 7.812 13.5575 8.064 12.8135 8.064C11.5535 8.064 10.6535 7.32 10.5095 6.204H15.6695C15.6815 6.096 15.6935 5.952 15.6935 5.856ZM12.5495 3.552C13.6655 3.552 14.4695 4.308 14.5895 5.376H10.5095C10.6295 4.296 11.4455 3.552 12.5495 3.552ZM22.4814 9L19.9494 5.748L22.3494 2.64H21.0894L19.3494 4.932L17.5974 2.64H16.3134L18.7014 5.748L16.1934 9H17.4774L19.3374 6.564L21.1734 9H22.4814ZM26.9545 7.8C26.7145 7.992 26.3905 8.1 26.0545 8.1C25.4185 8.1 25.0585 7.716 25.0585 7.032V3.588H26.8825V2.64H25.0585V1.248H23.9065V2.64H22.8265V3.588H23.9065V7.08C23.9065 8.364 24.6385 9.072 25.9225 9.072C26.4385 9.072 26.9665 8.928 27.3145 8.628L26.9545 7.8ZM32.3019 8.112L34.0299 5.82L32.3019 3.516H31.2459L32.9379 5.82L31.2459 8.112H32.3019ZM34.6059 8.112L36.3339 5.82L34.6059 3.516H33.5499L35.2419 5.82L33.5499 8.112H34.6059Z" fill="#121212"/>
</svg>
