<svg width="37" height="10" viewBox="0 0 37 10" fill="none" xmlns="http://www.w3.org/2000/svg">
<path d="M2.56906 8.112H3.62506L1.93306 5.82L3.62506 3.516H2.56906L0.841063 5.82L2.56906 8.112ZM4.87306 8.112H5.92906L4.23706 5.82L5.92906 3.516H4.87306L3.14506 5.82L4.87306 8.112ZM14.0946 0.599999H10.8186V9H12.0186V6.456H14.0946C16.2786 6.456 17.5986 5.352 17.5986 3.528C17.5986 1.704 16.2786 0.599999 14.0946 0.599999ZM14.0586 5.412H12.0186V1.644H14.0586C15.5946 1.644 16.3986 2.328 16.3986 3.528C16.3986 4.728 15.5946 5.412 14.0586 5.412ZM20.1921 3.708V2.64H19.0881V9H20.2401V5.832C20.2401 4.44 21.0081 3.684 22.2441 3.684C22.3281 3.684 22.4121 3.684 22.5081 3.696V2.58C21.3921 2.58 20.6001 2.964 20.1921 3.708ZM29.6173 5.856C29.6173 3.9 28.3093 2.58 26.4733 2.58C24.6373 2.58 23.2813 3.936 23.2813 5.82C23.2813 7.716 24.6493 9.072 26.7013 9.072C27.7573 9.072 28.6333 8.712 29.2093 8.04L28.5733 7.296C28.1053 7.812 27.4813 8.064 26.7373 8.064C25.4773 8.064 24.5773 7.32 24.4333 6.204H29.5933C29.6053 6.096 29.6173 5.952 29.6173 5.856ZM26.4733 3.552C27.5893 3.552 28.3933 4.308 28.5133 5.376H24.4333C24.5533 4.296 25.3693 3.552 26.4733 3.552ZM35.5998 2.64L33.3678 7.74L31.1838 2.64H29.9838L32.7678 9H33.9438L36.7278 2.64H35.5998Z" fill="#999999"/>
</svg>
