<svg width="13" height="13" viewBox="0 0 13 13" fill="none" xmlns="http://www.w3.org/2000/svg">
<path d="M7.46765 6.50096L12.7996 1.16899C13.0668 0.901783 13.0668 0.468569 12.7996 0.201384C12.5324 -0.065826 12.0992 -0.065826 11.832 0.201384L6.49999 5.53335L1.16802 0.201384C0.900807 -0.065826 0.467593 -0.065826 0.200408 0.201384C-0.0667772 0.468595 -0.0668026 0.901809 0.200408 1.16899L5.53238 6.50096L0.200408 11.8329C-0.0668026 12.1001 -0.0668026 12.5334 0.200408 12.8005C0.467618 13.0678 0.900832 13.0677 1.16802 12.8005L6.49999 7.46857L11.8319 12.8005C12.0991 13.0678 12.5324 13.0677 12.7996 12.8005C13.0668 12.5333 13.0668 12.1001 12.7996 11.8329L7.46765 6.50096Z" fill="#F44336"/>
</svg>
