<svg width="21" height="13" viewBox="0 0 21 13" fill="none" xmlns="http://www.w3.org/2000/svg">
<path d="M20.9222 6.25052C20.7569 6.01079 16.7827 0.375 10.5003 0.375C5.10949 0.375 0.305818 5.97843 0.103696 6.2173C-0.0345654 6.38004 -0.0345654 6.61892 0.103696 6.78252C0.305818 7.0214 5.10949 12.6248 10.5003 12.6248C15.8911 12.6248 20.6948 7.0214 20.8969 6.78252C21.0238 6.63114 21.0351 6.41327 20.9222 6.25052ZM10.5003 9.99982C8.57009 9.99982 7.00036 8.4301 7.00036 6.49989C7.00036 4.56968 8.57009 2.99996 10.5003 2.99996C12.4305 2.99996 14.0002 4.56968 14.0002 6.49989C14.0002 8.4301 12.4305 9.99982 10.5003 9.99982Z" fill="#F9D349"/>
</svg>
