<svg width="20" height="20" viewBox="0 0 20 20" fill="none" xmlns="http://www.w3.org/2000/svg">
<g clip-path="url(#clip0)">
<path d="M19.9259 9.76273C19.7684 9.53441 15.9835 4.16699 10.0003 4.16699C4.86618 4.16699 0.291255 9.50359 0.0987582 9.73109C-0.0329194 9.88608 -0.0329194 10.1136 0.0987582 10.2694C0.291255 10.4969 4.86618 15.8335 10.0003 15.8335C15.1344 15.8335 19.7093 10.4969 19.9018 10.2694C20.0226 10.1252 20.0334 9.91772 19.9259 9.76273ZM10.0003 13.3335C8.16199 13.3335 6.66701 11.8385 6.66701 10.0002C6.66701 8.16193 8.16199 6.66695 10.0003 6.66695C11.8386 6.66695 13.3336 8.16193 13.3336 10.0002C13.3336 11.8385 11.8386 13.3335 10.0003 13.3335Z" fill="#E0E0E0"/>
</g>
<defs>
<clipPath id="clip0">
<rect width="20" height="20" fill="white"/>
</clipPath>
</defs>
</svg>
