<svg width="20" height="20" viewBox="0 0 20 20" fill="none" xmlns="http://www.w3.org/2000/svg">
<g clip-path="url(#clip0)">
<path d="M10.0003 4.16699C4.86618 4.16699 0.291255 9.50359 0.0987582 9.73108C-0.0329194 9.88608 -0.0329194 10.1136 0.0987582 10.2694C0.213756 10.4052 1.89541 12.3577 4.32037 13.9127L6.93201 11.301C6.76201 10.901 6.66701 10.4619 6.66701 10.0002C6.66701 8.16193 8.16199 6.66695 10.0003 6.66695C10.462 6.66695 10.9011 6.76195 11.3011 6.93195L13.4485 4.78448C12.4019 4.41031 11.2528 4.16699 10.0003 4.16699Z" fill="#E0E0E0"/>
<path d="M19.9259 9.76262C19.8192 9.60844 18.0501 7.11848 15.076 5.51351L17.3784 3.21104C17.5409 3.04855 17.5409 2.78437 17.3784 2.62187C17.2159 2.45938 16.9518 2.45938 16.7893 2.62187L2.62285 16.7884C2.46035 16.9509 2.46035 17.215 2.62285 17.3775C2.70367 17.4592 2.81035 17.5 2.91702 17.5C3.0237 17.5 3.13034 17.4592 3.21202 17.3784L5.82448 14.7659C7.11196 15.3942 8.53194 15.8334 10.0002 15.8334C15.1343 15.8334 19.7093 10.4968 19.9018 10.2693C20.0226 10.1251 20.0334 9.91762 19.9259 9.76262ZM10.0002 13.3334C9.23107 13.3334 8.53194 13.0609 7.96695 12.6226L12.6227 7.96687C13.061 8.53186 13.3335 9.23103 13.3335 10.0002C13.3335 11.8384 11.8385 13.3334 10.0002 13.3334Z" fill="#E0E0E0"/>
</g>
<defs>
<clipPath id="clip0">
<rect width="20" height="20" fill="white"/>
</clipPath>
</defs>
</svg>
